<?xml version="1.0" standalone="no"?>
<!DOCTYPE svg PUBLIC "-//W3C//DTD SVG 20010904//EN"
 "http://www.w3.org/TR/2001/REC-SVG-20010904/DTD/svg10.dtd">
<svg version="1.0" xmlns="http://www.w3.org/2000/svg"
 width="512.000000pt" height="512.000000pt" viewBox="0 0 512.000000 512.000000"
 preserveAspectRatio="xMidYMid meet">
<metadata>
Created by potrace 1.14, written by Peter Selinger 2001-2017
</metadata>
<g transform="translate(0.000000,512.000000) scale(0.100000,-0.100000)"
fill="#000000" stroke="none">
<path d="M1507 4910 c-235 -30 -418 -228 -434 -470 -10 -146 45 -290 151 -396
100 -100 209 -144 357 -144 86 0 169 19 238 54 59 31 150 116 185 175 128 210
108 445 -55 624 -111 122 -270 179 -442 157z"/>
<path d="M3532 4400 c-77 -11 -174 -62 -221 -116 -75 -85 -71 -25 -71 -1094
l0 -956 -51 -83 c-100 -163 -254 -296 -402 -349 -65 -24 -86 -26 -222 -27
-160 0 -201 8 -307 61 -113 57 -212 187 -270 354 -46 136 -51 207 -55 893 -4
603 -6 648 -21 641 -9 -4 -55 -21 -102 -38 -78 -27 -96 -30 -220 -30 -142 -1
-198 8 -302 50 -31 13 -60 24 -63 24 -3 0 -5 -711 -5 -1580 0 -1130 3 -1594
11 -1632 16 -74 40 -117 94 -167 128 -118 311 -133 459 -37 65 43 90 69 118
131 l23 50 3 572 3 572 54 -19 c229 -79 670 -104 870 -51 162 43 302 127 433
260 l83 83 50 -55 c132 -149 351 -258 603 -302 105 -18 234 -19 308 -4 187 40
325 203 394 464 25 92 27 117 28 306 1 229 -2 244 -61 281 -30 18 -46 20 -125
16 -69 -3 -93 -8 -103 -21 -8 -11 -14 -88 -19 -228 -10 -310 -38 -442 -114
-530 -44 -51 -85 -69 -154 -69 -97 0 -154 61 -199 210 l-23 75 -6 1040 c-4
703 -9 1050 -17 1070 -23 66 -54 115 -95 148 -73 59 -120 78 -228 92 -14 1
-49 -1 -78 -5z"/>
</g>
</svg>
